<svg xmlns="http://www.w3.org/2000/svg" xmlns:xlink="http://www.w3.org/1999/xlink" viewBox="0,0,256,256" width="500px" height="500px" fill-rule="nonzero"><g fill="none" fill-rule="nonzero" stroke="none" stroke-width="1" stroke-linecap="butt" stroke-linejoin="miter" stroke-miterlimit="10" stroke-dasharray="" stroke-dashoffset="0" font-family="none" font-weight="none" font-size="none" text-anchor="none" style="mix-blend-mode: normal"><g transform="translate(-18.77632,-34.61102) scale(2.56,2.56)"><path d="M87.234,55.551c0.3,-0.616 0.566,-1.264 0.796,-1.943c2.633,-7.77 -1.349,-17.078 -9.733,-19.325c-0.906,-11.383 -8.906,-19.193 -17.941,-20.525c-10.341,-1.525 -19.814,5.044 -22.966,15.485c-3.799,-1.346 -7.501,-1.182 -10.99,0.857c-1.583,0.732 -3.031,1.812 -4.33,3.233c-1.907,2.086 -3.147,4.719 -3.652,7.495c-0.748,0.118 -1.483,0.236 -2.176,0.484c-4.04,1.449 -6.589,4.431 -7.288,8.923c-0.435,2.797 0.443,5.587 0.933,6.714c1.935,4.455 6.422,6.98 10.981,6.312c0.227,-0.033 0.557,0.069 0.752,0.233c0.241,7.12 3.698,13.417 8.884,17.014c8.321,5.772 19.027,3.994 25.781,-3.921c2.894,2.96 6.338,4.398 10.384,3.876c4.023,-0.519 7.147,-2.739 9.426,-6.349c1.053,0.283 2.051,0.691 3.083,0.804c4.042,0.442 7.297,-1.184 9.732,-4.8c0.083,-0.124 0.203,-0.219 0.306,-0.328c0.348,-0.798 0.696,-1.596 1.044,-2.394c0.155,-1.211 0.429,-2.423 0.443,-3.632c0.039,-3.256 -1.292,-6.224 -3.469,-8.213z" fill="#c8ede6"></path><path d="M70.674,39.423c0,0 -11.691,0 -11.762,0c-2.7,0 -4.888,-2.189 -4.888,-4.889c0,-2.355 1.666,-4.321 3.884,-4.784c-0.026,-0.206 -0.043,-0.415 -0.043,-0.628c0,-2.796 2.267,-5.063 5.063,-5.063c1.651,0 3.113,0.794 4.037,2.017c0.236,-3.113 3.017,-5.514 6.27,-5.116c2.379,0.291 4.346,2.13 4.784,4.486c0.14,0.756 0.126,1.489 -0.014,2.177c0.638,-0.687 1.546,-1.119 2.557,-1.119c1.85,0 3.361,1.441 3.48,3.261c0.84,-0.186 1.754,-0.174 2.717,0.188c1.84,0.691 3.15,2.423 3.227,4.387c0.109,2.789 -2.12,5.085 -4.885,5.085c-0.21,0 -0.948,0 -1.118,0h-10.151" fill="#fdfcef"></path><path d="M58.912,39.923h11.762c0.276,0 0.5,-0.224 0.5,-0.5c0,-0.276 -0.224,-0.5 -0.5,-0.5h-11.762c-2.42,0 -4.389,-1.969 -4.389,-4.389c0,-2.066 1.466,-3.873 3.486,-4.295c0.255,-0.053 0.426,-0.293 0.394,-0.552c-0.023,-0.186 -0.039,-0.374 -0.039,-0.565c0,-2.517 2.047,-4.563 4.562,-4.563c1.438,0 2.765,0.663 3.638,1.818c0.125,0.166 0.338,0.237 0.54,0.178c0.199,-0.059 0.342,-0.234 0.357,-0.441c0.104,-1.377 0.779,-2.671 1.85,-3.549c1.083,-0.888 2.456,-1.282 3.86,-1.109c2.166,0.266 3.956,1.943 4.353,4.081c0.124,0.667 0.12,1.335 -0.013,1.986c-0.044,0.22 0.062,0.442 0.262,0.544c0.2,0.104 0.443,0.06 0.595,-0.104c0.575,-0.618 1.353,-0.959 2.19,-0.959c1.569,0 2.878,1.228 2.981,2.794c0.01,0.146 0.082,0.279 0.199,0.366c0.117,0.089 0.268,0.12 0.408,0.089c0.841,-0.185 1.637,-0.132 2.433,0.167c1.669,0.627 2.835,2.209 2.903,3.938c0.047,1.207 -0.387,2.35 -1.221,3.218c-0.835,0.869 -1.959,1.348 -3.164,1.348h-11.269c-0.276,0 -0.5,0.224 -0.5,0.5c0,0.276 0.224,0.5 0.5,0.5h11.271c1.479,0 2.858,-0.588 3.884,-1.654c1.025,-1.066 1.558,-2.469 1.5,-3.95c-0.083,-2.126 -1.51,-4.069 -3.55,-4.835c-0.8,-0.301 -1.626,-0.398 -2.468,-0.299c-0.377,-1.822 -1.998,-3.182 -3.905,-3.182c-0.684,0 -1.354,0.18 -1.944,0.51c0,-0.386 -0.035,-0.772 -0.106,-1.159c-0.477,-2.562 -2.621,-4.573 -5.215,-4.891c-1.679,-0.205 -3.32,0.266 -4.616,1.328c-1.003,0.823 -1.716,1.951 -2.038,3.193c-1.012,-0.916 -2.319,-1.426 -3.714,-1.426c-3.067,0 -5.562,2.496 -5.562,5.563c0,0.083 0.002,0.166 0.007,0.248c-2.254,0.673 -3.848,2.776 -3.848,5.164c-0.001,2.973 2.416,5.389 5.388,5.389z" fill="#472b29"></path><path d="M73.507,28.655c1.808,-0.119 3.365,1.13 3.476,2.789c0.014,0.206 0.005,0.409 -0.025,0.606c0.349,-0.394 0.865,-0.661 1.458,-0.7c1.085,-0.071 2.022,0.645 2.158,1.62c0.197,-0.054 0.403,-0.09 0.616,-0.104c1.582,-0.104 2.944,0.989 3.042,2.441" fill="#fdfcef"></path><path d="M84.231,35.556c0.006,0 0.012,0 0.017,-0.001c0.138,-0.009 0.242,-0.128 0.233,-0.266c-0.107,-1.587 -1.588,-2.789 -3.308,-2.674c-0.137,0.009 -0.273,0.026 -0.409,0.053c-0.274,-0.968 -1.256,-1.645 -2.366,-1.567c-0.425,0.027 -0.823,0.159 -1.164,0.382c0,-0.019 -0.002,-0.037 -0.003,-0.056c-0.12,-1.795 -1.787,-3.16 -3.742,-3.021c-0.138,0.009 -0.242,0.128 -0.233,0.266c0.009,0.138 0.124,0.255 0.266,0.232c1.651,-0.105 3.108,1.037 3.21,2.557c0.012,0.184 0.004,0.37 -0.023,0.553c-0.017,0.109 0.041,0.217 0.141,0.264c0.1,0.047 0.219,0.022 0.293,-0.061c0.323,-0.365 0.78,-0.584 1.287,-0.617c0.951,-0.034 1.775,0.556 1.894,1.404c0.01,0.071 0.05,0.135 0.11,0.175c0.06,0.039 0.133,0.051 0.204,0.032c0.187,-0.051 0.377,-0.083 0.567,-0.097c1.44,-0.092 2.687,0.896 2.775,2.209c0.011,0.132 0.121,0.233 0.251,0.233z" fill="#472b29"></path><path d="M56.932,30.323c1.699,-0.801 3.664,-0.234 4.389,1.267c0.09,0.186 0.157,0.379 0.201,0.574" fill="#fdfcef"></path><path d="M61.522,32.414c0.018,0 0.037,-0.002 0.056,-0.006c0.134,-0.031 0.219,-0.165 0.188,-0.3c-0.049,-0.217 -0.123,-0.428 -0.219,-0.627c-0.783,-1.621 -2.902,-2.239 -4.721,-1.385c-0.125,0.06 -0.179,0.208 -0.12,0.333c0.059,0.126 0.209,0.176 0.333,0.12c1.574,-0.744 3.394,-0.227 4.058,1.149c0.08,0.165 0.141,0.34 0.182,0.521c0.026,0.117 0.129,0.195 0.243,0.195z" fill="#472b29"></path><path d="M17.899,43h-10.03c-0.276,0 -0.5,-0.224 -0.5,-0.5c0,-0.276 0.224,-0.5 0.5,-0.5h10.03c0.276,0 0.5,0.224 0.5,0.5c0,0.276 -0.223,0.5 -0.5,0.5zM21.28,42.5c0,-0.276 -0.224,-0.5 -0.5,-0.5h-1.446c-0.276,0 -0.5,0.224 -0.5,0.5c0,0.276 0.224,0.5 0.5,0.5h1.446c0.277,0 0.5,-0.224 0.5,-0.5zM25.335,42.5c0,-0.276 -0.224,-0.5 -0.5,-0.5h-2.546c-0.276,0 -0.5,0.224 -0.5,0.5c0,0.276 0.224,0.5 0.5,0.5h2.546c0.277,0 0.5,-0.224 0.5,-0.5zM25.335,44.5c0,-0.276 -0.224,-0.5 -0.5,-0.5h-9.616c-0.276,0 -0.5,0.224 -0.5,0.5c0,0.276 0.224,0.5 0.5,0.5h9.616c0.277,0 0.5,-0.224 0.5,-0.5zM13.987,44.5c0,-0.276 -0.224,-0.5 -0.5,-0.5h-0.58c-0.276,0 -0.5,0.224 -0.5,0.5c0,0.276 0.224,0.5 0.5,0.5h0.58c0.276,0 0.5,-0.224 0.5,-0.5zM11.611,44.5c0,-0.276 -0.224,-0.5 -0.5,-0.5h-1.457c-0.276,0 -0.5,0.224 -0.5,0.5c0,0.276 0.224,0.5 0.5,0.5h1.457c0.276,0 0.5,-0.224 0.5,-0.5zM20.746,40.5c0,-0.276 -0.224,-0.5 -0.5,-0.5h-5.027c-0.276,0 -0.5,0.224 -0.5,0.5c0,0.276 0.224,0.5 0.5,0.5h5.027c0.277,0 0.5,-0.224 0.5,-0.5zM20.746,38.5c0,-0.276 -0.224,-0.5 -0.5,-0.5h-1.257c-0.276,0 -0.5,0.224 -0.5,0.5c0,0.276 0.224,0.5 0.5,0.5h1.257c0.277,0 0.5,-0.224 0.5,-0.5zM17.477,46.5c0,-0.276 -0.224,-0.5 -0.5,-0.5h-1.758c-0.276,0 -0.5,0.224 -0.5,0.5c0,0.276 0.224,0.5 0.5,0.5h1.758c0.277,0 0.5,-0.224 0.5,-0.5z" fill="#ffffff"></path><path d="M32.722,72.3c-2.218,0 -4.021,-1.804 -4.021,-4.021v-29.557c0,-2.218 1.804,-4.021 4.021,-4.021h35.557c2.218,0 4.021,1.804 4.021,4.021v29.557c0,2.218 -1.804,4.021 -4.021,4.021z" fill="#fffef4"></path><path d="M68.278,35.4c1.832,0 3.322,1.49 3.322,3.322v29.557c0,1.832 -1.49,3.322 -3.322,3.322h-35.556c-1.832,0 -3.322,-1.49 -3.322,-3.322v-29.557c0,-1.832 1.49,-3.322 3.322,-3.322h35.556M68.278,34h-35.556c-2.608,0 -4.722,2.114 -4.722,4.722v29.557c0,2.607 2.114,4.721 4.722,4.721h35.557c2.607,0 4.721,-2.114 4.721,-4.722v-29.556c0,-2.608 -2.114,-4.722 -4.722,-4.722z" fill="#472b29"></path><path d="M57.5,47h-14c-0.276,0 -0.5,-0.224 -0.5,-0.5c0,-0.276 0.224,-0.5 0.5,-0.5h14c0.276,0 0.5,0.224 0.5,0.5c0,0.276 -0.224,0.5 -0.5,0.5zM44.5,37.75h-15c-0.138,0 -0.25,-0.112 -0.25,-0.25c0,-0.138 0.112,-0.25 0.25,-0.25h15c0.138,0 0.25,0.112 0.25,0.25c0,0.138 -0.112,0.25 -0.25,0.25zM50.5,37.75h-4c-0.138,0 -0.25,-0.112 -0.25,-0.25c0,-0.138 0.112,-0.25 0.25,-0.25h4c0.138,0 0.25,0.112 0.25,0.25c0,0.138 -0.112,0.25 -0.25,0.25zM62.5,37.75h-10c-0.138,0 -0.25,-0.112 -0.25,-0.25c0,-0.138 0.112,-0.25 0.25,-0.25h10c0.138,0 0.25,0.112 0.25,0.25c0,0.138 -0.112,0.25 -0.25,0.25zM72.5,37.75h-7c-0.138,0 -0.25,-0.112 -0.25,-0.25c0,-0.138 0.112,-0.25 0.25,-0.25h7c0.138,0 0.25,0.112 0.25,0.25c0,0.138 -0.112,0.25 -0.25,0.25zM44.5,69.75h-17c-0.138,0 -0.25,-0.112 -0.25,-0.25c0,-0.138 0.112,-0.25 0.25,-0.25h17c0.138,0 0.25,0.112 0.25,0.25c0,0.138 -0.112,0.25 -0.25,0.25zM50.5,69.75h-4c-0.138,0 -0.25,-0.112 -0.25,-0.25c0,-0.138 0.112,-0.25 0.25,-0.25h4c0.138,0 0.25,0.112 0.25,0.25c0,0.138 -0.112,0.25 -0.25,0.25zM62.5,69.75h-10c-0.138,0 -0.25,-0.112 -0.25,-0.25c0,-0.138 0.112,-0.25 0.25,-0.25h10c0.138,0 0.25,0.112 0.25,0.25c0,0.138 -0.112,0.25 -0.25,0.25zM72.5,69.75h-7c-0.138,0 -0.25,-0.112 -0.25,-0.25c0,-0.138 0.112,-0.25 0.25,-0.25h7c0.138,0 0.25,0.112 0.25,0.25c0,0.138 -0.112,0.25 -0.25,0.25zM67.5,47h-6c-0.276,0 -0.5,-0.224 -0.5,-0.5c0,-0.276 0.224,-0.5 0.5,-0.5h6c0.276,0 0.5,0.224 0.5,0.5c0,0.276 -0.224,0.5 -0.5,0.5zM67.5,56h-16c-0.276,0 -0.5,-0.224 -0.5,-0.5c0,-0.276 0.224,-0.5 0.5,-0.5h16c0.276,0 0.5,0.224 0.5,0.5c0,0.276 -0.224,0.5 -0.5,0.5zM48.5,56h-5c-0.276,0 -0.5,-0.224 -0.5,-0.5c0,-0.276 0.224,-0.5 0.5,-0.5h5c0.276,0 0.5,0.224 0.5,0.5c0,0.276 -0.224,0.5 -0.5,0.5z" fill="#472b29"></path><g fill="#472b29"><path d="M63.5,64h-20c-0.276,0 -0.5,-0.224 -0.5,-0.5c0,-0.276 0.224,-0.5 0.5,-0.5h20c0.276,0 0.5,0.224 0.5,0.5c0,0.276 -0.224,0.5 -0.5,0.5z"></path></g><g fill="#472b29"><path d="M36.4,48.2c-0.132,0 -0.26,-0.053 -0.354,-0.146l-2.4,-2.4c-0.195,-0.195 -0.195,-0.512 0,-0.707c0.195,-0.195 0.512,-0.195 0.707,0l1.993,1.993l3.253,-4.339c0.167,-0.221 0.48,-0.265 0.7,-0.101c0.221,0.166 0.266,0.479 0.101,0.7l-3.6,4.8c-0.087,0.116 -0.221,0.188 -0.365,0.199c-0.011,0.001 -0.023,0.001 -0.035,0.001z"></path></g><g fill="#472b29"><path d="M36.4,57.2c-0.132,0 -0.26,-0.053 -0.354,-0.146l-2.4,-2.4c-0.195,-0.195 -0.195,-0.512 0,-0.707c0.195,-0.195 0.512,-0.195 0.707,0l1.993,1.993l3.253,-4.339c0.167,-0.221 0.48,-0.265 0.7,-0.101c0.221,0.166 0.266,0.479 0.101,0.7l-3.6,4.8c-0.087,0.116 -0.221,0.188 -0.365,0.199c-0.011,0.001 -0.023,0.001 -0.035,0.001z"></path></g><g fill="#472b29"><path d="M36.4,65.2c-0.132,0 -0.26,-0.053 -0.354,-0.146l-2.4,-2.4c-0.195,-0.195 -0.195,-0.512 0,-0.707c0.195,-0.195 0.512,-0.195 0.707,0l1.993,1.993l3.253,-4.339c0.167,-0.221 0.48,-0.265 0.7,-0.101c0.221,0.166 0.266,0.479 0.101,0.7l-3.6,4.8c-0.087,0.116 -0.221,0.188 -0.365,0.199c-0.011,0.001 -0.023,0.001 -0.035,0.001z"></path></g><g fill="#ffffff"><path d="M87,62h-10c-0.276,0 -0.5,-0.224 -0.5,-0.5c0,-0.276 0.224,-0.5 0.5,-0.5h10c0.276,0 0.5,0.224 0.5,0.5c0,0.276 -0.224,0.5 -0.5,0.5zM91,62h-2c-0.276,0 -0.5,-0.224 -0.5,-0.5c0,-0.276 0.224,-0.5 0.5,-0.5h2c0.276,0 0.5,0.224 0.5,0.5c0,0.276 -0.224,0.5 -0.5,0.5zM96,64h-10c-0.276,0 -0.5,-0.224 -0.5,-0.5c0,-0.276 0.224,-0.5 0.5,-0.5h10c0.276,0 0.5,0.224 0.5,0.5c0,0.276 -0.223,0.5 -0.5,0.5zM84,64h-1c-0.276,0 -0.5,-0.224 -0.5,-0.5c0,-0.276 0.224,-0.5 0.5,-0.5h1c0.276,0 0.5,0.224 0.5,0.5c0,0.276 -0.224,0.5 -0.5,0.5zM80.875,64h-1.875c-0.276,0 -0.5,-0.224 -0.5,-0.5c0,-0.276 0.224,-0.5 0.5,-0.5h1.875c0.276,0 0.5,0.224 0.5,0.5c0,0.276 -0.224,0.5 -0.5,0.5zM90,60h-5c-0.276,0 -0.5,-0.224 -0.5,-0.5c0,-0.276 0.224,-0.5 0.5,-0.5h5c0.276,0 0.5,0.224 0.5,0.5c0,0.276 -0.223,0.5 -0.5,0.5zM87,66h-2c-0.276,0 -0.5,-0.224 -0.5,-0.5c0,-0.276 0.224,-0.5 0.5,-0.5h2c0.276,0 0.5,0.224 0.5,0.5c0,0.276 -0.224,0.5 -0.5,0.5z"></path></g><g><path d="M34.178,80.287c1.883,0 3.517,0 3.54,0c2.11,0 3.821,-1.674 3.821,-3.739c0,-1.802 -1.302,-3.305 -3.035,-3.66c0.02,-0.158 0.034,-0.317 0.034,-0.48c0,-2.139 -1.772,-3.873 -3.957,-3.873c-1.29,0 -2.433,0.607 -3.155,1.543c-0.185,-2.381 -2.358,-4.218 -4.9,-3.913c-1.859,0.223 -3.397,1.629 -3.739,3.431c-0.11,0.578 -0.098,1.139 0.011,1.665c-0.498,-0.525 -1.208,-0.856 -1.998,-0.856c-1.446,0 -2.627,1.102 -2.72,2.494c-0.657,-0.142 -1.371,-0.133 -2.123,0.143c-1.438,0.528 -2.462,1.853 -2.522,3.356c-0.085,2.133 1.657,3.889 3.818,3.889c0.164,0 0.741,0 0.874,0h7.934M27.701,80.287h0.36" fill="#fdfcef"></path><path d="M37.718,80.788h-3.54c-0.276,0 -0.5,-0.224 -0.5,-0.5c0,-0.276 0.224,-0.5 0.5,-0.5h3.54c1.831,0 3.321,-1.453 3.321,-3.239c0,-1.524 -1.108,-2.858 -2.636,-3.17c-0.256,-0.053 -0.429,-0.294 -0.396,-0.554c0.018,-0.137 0.03,-0.275 0.03,-0.417c0,-1.86 -1.551,-3.373 -3.457,-3.373c-1.092,0 -2.098,0.491 -2.76,1.349c-0.126,0.164 -0.341,0.231 -0.539,0.174c-0.198,-0.06 -0.339,-0.234 -0.355,-0.44c-0.079,-1.02 -0.565,-1.944 -1.369,-2.604c-0.829,-0.68 -1.885,-0.979 -2.973,-0.853c-1.646,0.197 -3.006,1.442 -3.307,3.027c-0.094,0.495 -0.091,0.99 0.009,1.472c0.045,0.219 -0.06,0.441 -0.258,0.545c-0.197,0.102 -0.44,0.063 -0.594,-0.1c-0.428,-0.451 -1.009,-0.7 -1.635,-0.7c-1.169,0 -2.145,0.891 -2.221,2.027c-0.01,0.146 -0.082,0.278 -0.198,0.366c-0.116,0.087 -0.264,0.12 -0.406,0.089c-0.639,-0.138 -1.243,-0.098 -1.846,0.125c-1.262,0.463 -2.144,1.631 -2.195,2.905c-0.035,0.876 0.283,1.709 0.895,2.346c0.635,0.66 1.496,1.024 2.423,1.024h8.807c0.276,0 0.5,0.224 0.5,0.5c0,0.276 -0.224,0.5 -0.5,0.5h-8.807c-1.185,0 -2.331,-0.485 -3.144,-1.331c-0.803,-0.836 -1.219,-1.929 -1.173,-3.078c0.067,-1.675 1.212,-3.204 2.849,-3.806c0.61,-0.225 1.24,-0.304 1.88,-0.244c0.344,-1.396 1.629,-2.424 3.135,-2.424c0.493,0 0.977,0.113 1.414,0.323c0.009,-0.242 0.037,-0.484 0.083,-0.727c0.381,-2.009 2.096,-3.585 4.17,-3.833c1.365,-0.167 2.685,0.218 3.726,1.071c0.748,0.613 1.278,1.409 1.546,2.302c0.791,-0.648 1.786,-1.007 2.842,-1.007c2.458,0 4.457,1.962 4.457,4.373c0,0.034 0,0.068 -0.001,0.103c1.764,0.555 3.003,2.188 3.003,4.038c0.001,2.339 -1.937,4.241 -4.32,4.241zM28.061,80.788h-0.36c-0.276,0 -0.5,-0.224 -0.5,-0.5c0,-0.276 0.224,-0.5 0.5,-0.5h0.36c0.276,0 0.5,0.224 0.5,0.5c0,0.276 -0.224,0.5 -0.5,0.5z" fill="#472b29"></path><g fill="#472b29"><path d="M36.011,74.984c-0.018,0 -0.036,-0.002 -0.055,-0.006c-0.135,-0.03 -0.22,-0.164 -0.189,-0.299c0.037,-0.164 0.094,-0.325 0.17,-0.479c0.604,-1.224 2.272,-1.677 3.722,-1.007c0.125,0.058 0.18,0.206 0.122,0.331c-0.058,0.126 -0.207,0.179 -0.332,0.122c-1.201,-0.556 -2.577,-0.208 -3.063,0.774c-0.058,0.118 -0.102,0.242 -0.13,0.367c-0.027,0.118 -0.13,0.197 -0.245,0.197z"></path></g><g fill="#472b29"><path d="M30.852,80.788h-1.107c-0.276,0 -0.5,-0.224 -0.5,-0.5c0,-0.276 0.224,-0.5 0.5,-0.5h1.107c0.276,0 0.5,0.224 0.5,0.5c0,0.276 -0.223,0.5 -0.5,0.5z"></path></g></g></g></g><g fill="#c8ede6" fill-rule="nonzero" stroke="none" stroke-width="1" stroke-linecap="butt" stroke-linejoin="miter" stroke-miterlimit="10" stroke-dasharray="" stroke-dashoffset="0" font-family="none" font-weight="none" font-size="none" text-anchor="none" style="mix-blend-mode: normal"><g><path d="M24.562,190.378v4.25h-7.81v21.23h-5.25v-21.23h-7.7v-4.25zM22.792,206.448v-0.23c0,-1.88 0.36,-3.55333 1.08,-5.02c0.72667,-1.47333 1.77,-2.61333 3.13,-3.42c1.36,-0.8 2.93667,-1.2 4.73,-1.2v0c2.55333,0 4.64,0.78 6.26,2.34c1.61333,1.56667 2.51333,3.69 2.7,6.37v0l0.04,1.3c0,2.9 -0.81333,5.23 -2.44,6.99c-1.62,1.75333 -3.79333,2.63 -6.52,2.63c-2.73333,0 -4.91333,-0.87333 -6.54,-2.62c-1.62667,-1.75333 -2.44,-4.13333 -2.44,-7.14zM27.852,206.588v0c0,1.79333 0.33667,3.16667 1.01,4.12c0.68,0.94667 1.65,1.42 2.91,1.42v0c1.22,0 2.17667,-0.47 2.87,-1.41c0.68667,-0.93333 1.03,-2.43333 1.03,-4.5v0c0,-1.76667 -0.34333,-3.13333 -1.03,-4.1c-0.69333,-0.96667 -1.66333,-1.45 -2.91,-1.45v0c-1.23333,0 -2.19,0.48 -2.87,1.44c-0.67333,0.96667 -1.01,2.46 -1.01,4.48zM53.682,202.908v4.08h-9.86v-4.08zM65.962,215.858h-7.89v-25.48h7.84c2.24,0 4.24333,0.50333 6.01,1.51c1.76667,1.01333 3.14667,2.45 4.14,4.31c0.99333,1.86 1.49,3.97333 1.49,6.34v0v1.18c0,2.36667 -0.49,4.47 -1.47,6.31c-0.97333,1.84667 -2.34667,3.27667 -4.12,4.29c-1.77333,1.01333 -3.77333,1.52667 -6,1.54zM65.912,194.628h-2.59v17.01h2.54c2.05333,0 3.62,-0.67 4.7,-2.01c1.08667,-1.34 1.64333,-3.26 1.67,-5.76v0v-1.34c0,-2.59333 -0.53667,-4.55667 -1.61,-5.89c-1.07333,-1.34 -2.64333,-2.01 -4.71,-2.01zM80.242,206.448v-0.23c0,-1.88 0.36333,-3.55333 1.09,-5.02c0.72,-1.47333 1.76,-2.61333 3.12,-3.42c1.36,-0.8 2.93667,-1.2 4.73,-1.2v0c2.56,0 4.64667,0.78 6.26,2.34c1.61333,1.56667 2.51333,3.69 2.7,6.37v0l0.04,1.3c0,2.9 -0.81,5.23 -2.43,6.99c-1.62667,1.75333 -3.80333,2.63 -6.53,2.63c-2.73333,0 -4.91333,-0.87333 -6.54,-2.62c-1.62667,-1.75333 -2.44,-4.13333 -2.44,-7.14zM85.302,206.588v0c0,1.79333 0.33667,3.16667 1.01,4.12c0.68,0.94667 1.65,1.42 2.91,1.42v0c1.22667,0 2.18333,-0.47 2.87,-1.41c0.68667,-0.93333 1.03,-2.43333 1.03,-4.5v0c0,-1.76667 -0.34333,-3.13333 -1.03,-4.1c-0.68667,-0.96667 -1.65667,-1.45 -2.91,-1.45v0c-1.23333,0 -2.19,0.48 -2.87,1.44c-0.67333,0.96667 -1.01,2.46 -1.01,4.48zM110.552,190.378h6.86l6.55,18.48l6.51,-18.48h6.89v25.48h-5.27v-6.96l0.53,-12.03l-6.88,18.99h-3.6l-6.86,-18.97l0.52,12.01v6.96h-5.25zM157.702,215.858h-5.11c-0.23333,-0.45333 -0.40333,-1.02 -0.51,-1.7v0c-1.22667,1.36667 -2.82,2.05 -4.78,2.05v0c-1.85333,0 -3.39,-0.53667 -4.61,-1.61c-1.22,-1.07333 -1.83,-2.42667 -1.83,-4.06v0c0,-2.00667 0.74333,-3.54667 2.23,-4.62c1.48667,-1.07333 3.63667,-1.61667 6.45,-1.63v0h2.33v-1.08c0,-0.87333 -0.22667,-1.57333 -0.68,-2.1c-0.44667,-0.52667 -1.15333,-0.79 -2.12,-0.79v0c-0.85333,0 -1.52333,0.20333 -2.01,0.61c-0.48,0.41333 -0.72,0.97333 -0.72,1.68v0h-5.06c0,-1.09333 0.34,-2.10667 1.02,-3.04c0.67333,-0.93333 1.63,-1.66667 2.87,-2.2c1.23333,-0.52667 2.62,-0.79 4.16,-0.79v0c2.33333,0 4.18667,0.58333 5.56,1.75c1.36667,1.17333 2.05,2.82333 2.05,4.95v0v8.21c0.01333,1.79333 0.26667,3.15 0.76,4.07v0zM148.402,212.338v0c0.74667,0 1.43667,-0.16667 2.07,-0.5c0.62667,-0.32667 1.09333,-0.77 1.4,-1.33v0v-3.26h-1.89c-2.53333,0 -3.88,0.87667 -4.04,2.63v0l-0.02,0.29c0,0.63333 0.22,1.15333 0.66,1.56c0.44667,0.40667 1.05333,0.61 1.82,0.61zM160.722,196.928h4.76l0.16,2.18c1.35333,-1.68667 3.16667,-2.53 5.44,-2.53v0c2.00667,0 3.5,0.58667 4.48,1.76c0.98,1.18 1.48333,2.94333 1.51,5.29v0v12.23h-5.06v-12.11c0,-1.07333 -0.23333,-1.85333 -0.7,-2.34c-0.46667,-0.48 -1.24333,-0.72 -2.33,-0.72v0c-1.42,0 -2.48667,0.60667 -3.2,1.82v0v13.35h-5.06zM196.982,215.858h-5.11c-0.23333,-0.45333 -0.4,-1.02 -0.5,-1.7v0c-1.22667,1.36667 -2.82,2.05 -4.78,2.05v0c-1.85333,0 -3.39,-0.53667 -4.61,-1.61c-1.22,-1.07333 -1.83,-2.42667 -1.83,-4.06v0c0,-2.00667 0.74333,-3.54667 2.23,-4.62c1.48667,-1.07333 3.63667,-1.61667 6.45,-1.63v0h2.33v-1.08c0,-0.87333 -0.22667,-1.57333 -0.68,-2.1c-0.44667,-0.52667 -1.15333,-0.79 -2.12,-0.79v0c-0.85333,0 -1.52333,0.20333 -2.01,0.61c-0.48,0.41333 -0.72,0.97333 -0.72,1.68v0h-5.06c0,-1.09333 0.33667,-2.10667 1.01,-3.04c0.68,-0.93333 1.63667,-1.66667 2.87,-2.2c1.24,-0.52667 2.63,-0.79 4.17,-0.79v0c2.33333,0 4.18333,0.58333 5.55,1.75c1.37333,1.17333 2.06,2.82333 2.06,4.95v0v8.21c0.01333,1.79333 0.26333,3.15 0.75,4.07v0zM187.692,212.338v0c0.74667,0 1.43667,-0.16667 2.07,-0.5c0.62667,-0.32667 1.09333,-0.77 1.4,-1.33v0v-3.26h-1.89c-2.53333,0 -3.88333,0.87667 -4.05,2.63v0l-0.01,0.29c0,0.63333 0.22,1.15333 0.66,1.56c0.44667,0.40667 1.05333,0.61 1.82,0.61zM199.382,206.458v-0.21c0,-2.9 0.69,-5.23667 2.07,-7.01c1.38667,-1.77333 3.25333,-2.66 5.6,-2.66v0c2.07333,0 3.68667,0.71 4.84,2.13v0l0.21,-1.78h4.59v18.3c0,1.66 -0.37667,3.1 -1.13,4.32c-0.75333,1.22667 -1.81333,2.16 -3.18,2.8c-1.36,0.64667 -2.95667,0.97 -4.79,0.97v0c-1.38667,0 -2.74,-0.28 -4.06,-0.84c-1.32,-0.55333 -2.31667,-1.26667 -2.99,-2.14v0l2.24,-3.08c1.26,1.41333 2.78667,2.12 4.58,2.12v0c1.34,0 2.38333,-0.36 3.13,-1.08c0.74667,-0.71333 1.12,-1.73 1.12,-3.05v0v-1.02c-1.16667,1.32 -2.7,1.98 -4.6,1.98v0c-2.27333,0 -4.11333,-0.89 -5.52,-2.67c-1.40667,-1.78 -2.11,-4.14 -2.11,-7.08zM204.442,206.618v0c0,1.71333 0.34333,3.05667 1.03,4.03c0.68667,0.98 1.63333,1.47 2.84,1.47v0c1.54,0 2.64,-0.58 3.3,-1.74v0v-7.96c-0.67333,-1.15333 -1.76333,-1.73 -3.27,-1.73v0c-1.21333,0 -2.16667,0.49667 -2.86,1.49c-0.69333,0.98667 -1.04,2.46667 -1.04,4.44zM229.292,216.208v0c-2.78,0 -5.04,-0.85 -6.78,-2.55c-1.74667,-1.70667 -2.62,-3.97667 -2.62,-6.81v0v-0.49c0,-1.9 0.36667,-3.6 1.1,-5.1c0.74,-1.5 1.78333,-2.65667 3.13,-3.47c1.34667,-0.80667 2.88333,-1.21 4.61,-1.21v0c2.58667,0 4.62333,0.81667 6.11,2.45c1.49333,1.63333 2.24,3.94667 2.24,6.94v0v2.07h-12.06c0.16,1.23333 0.65333,2.22333 1.48,2.97c0.82,0.74667 1.86,1.12 3.12,1.12v0c1.94667,0 3.47,-0.70333 4.57,-2.11v0l2.48,2.78c-0.75333,1.07333 -1.78,1.91 -3.08,2.51c-1.29333,0.6 -2.72667,0.9 -4.3,0.9zM228.712,200.668v0c-1,0 -1.81333,0.34 -2.44,1.02c-0.62667,0.67333 -1.02667,1.64 -1.2,2.9v0h7.04v-0.4c-0.02667,-1.12 -0.33,-1.98667 -0.91,-2.6c-0.58667,-0.61333 -1.41667,-0.92 -2.49,-0.92zM250.662,196.798l-0.07,4.87c-0.69333,-0.09333 -1.3,-0.14 -1.82,-0.14v0c-1.91333,0 -3.17,0.64667 -3.77,1.94v0v12.39h-5.05v-18.93h4.77l0.14,2.25c1.02,-1.73333 2.42667,-2.6 4.22,-2.6v0c0.56,0 1.08667,0.07333 1.58,0.22z"></path></g></g></svg>